<svg id="svg" version="1.1" xmlns="http://www.w3.org/2000/svg" xmlns:xlink="http://www.w3.org/1999/xlink" width="400" height="400" viewBox="0, 0, 400,400"><g id="svgg"><path id="path0" d="M195.400 61.244 C 177.312 63.852,162.689 83.154,166.832 98.954 C 167.069 99.859,167.450 101.320,167.678 102.200 C 168.139 103.977,168.714 105.786,169.204 107.000 C 169.381 107.440,169.976 108.973,170.525 110.408 C 173.029 116.952,181.083 133.318,185.284 140.400 C 185.741 141.170,186.659 142.790,187.324 144.000 C 187.990 145.210,190.597 149.620,193.117 153.800 C 195.638 157.980,198.082 162.074,198.550 162.897 C 199.017 163.720,199.670 164.393,200.000 164.393 C 200.330 164.393,200.981 163.720,201.446 162.897 C 201.912 162.074,203.988 158.610,206.061 155.200 C 216.359 138.254,225.538 120.695,229.475 110.408 C 230.024 108.973,230.619 107.440,230.796 107.000 C 231.286 105.786,231.861 103.977,232.322 102.200 C 232.550 101.320,232.931 99.859,233.168 98.954 C 234.109 95.365,233.542 88.978,231.822 83.800 C 226.798 68.670,211.141 58.974,195.400 61.244 M206.434 69.636 C 230.995 77.635,225.733 113.402,200.000 113.370 C 174.361 113.338,168.891 78.256,193.200 69.756 C 196.793 68.500,202.779 68.445,206.434 69.636 " stroke="none" fill="#f82a52" fill-rule="evenodd"></path><path id="path1" d="M196.400 51.600 C 196.400 51.831,195.133 52.000,193.400 52.000 C 191.667 52.000,190.400 52.169,190.400 52.400 C 190.400 52.620,189.781 52.800,189.024 52.800 C 188.267 52.800,187.536 52.980,187.400 53.200 C 187.264 53.420,186.724 53.600,186.200 53.600 C 185.676 53.600,185.136 53.780,185.000 54.000 C 184.864 54.220,184.403 54.400,183.976 54.400 C 183.549 54.400,183.200 54.580,183.200 54.800 C 183.200 55.020,182.840 55.200,182.400 55.200 C 181.960 55.200,181.600 55.380,181.600 55.600 C 181.600 55.820,181.366 56.000,181.080 56.000 C 180.344 56.000,178.407 56.941,178.403 57.300 C 178.401 57.465,178.040 57.600,177.600 57.600 C 177.160 57.600,176.800 57.780,176.800 58.000 C 176.800 58.220,176.575 58.403,176.300 58.406 C 176.025 58.410,175.191 58.950,174.446 59.606 C 173.701 60.263,172.935 60.800,172.743 60.800 C 172.273 60.800,166.000 67.155,166.000 67.631 C 166.000 67.838,165.460 68.572,164.800 69.263 C 164.140 69.954,163.600 70.762,163.600 71.059 C 163.600 71.357,163.420 71.600,163.200 71.600 C 162.980 71.600,162.800 71.960,162.800 72.400 C 162.800 72.840,162.650 73.200,162.468 73.200 C 161.685 73.200,158.400 81.506,158.400 83.485 C 158.400 84.208,158.220 84.800,158.000 84.800 C 157.775 84.800,157.600 85.925,157.600 87.376 C 157.600 88.793,157.420 90.064,157.200 90.200 C 156.979 90.337,156.800 92.137,156.800 94.224 C 156.800 96.475,156.962 98.000,157.200 98.000 C 157.420 98.000,157.600 98.979,157.600 100.176 C 157.600 101.373,157.780 102.464,158.000 102.600 C 158.220 102.736,158.400 103.356,158.400 103.978 C 158.400 105.071,159.365 108.774,159.970 110.000 C 160.132 110.330,160.515 111.455,160.820 112.500 C 161.125 113.545,161.515 114.400,161.687 114.400 C 161.859 114.400,162.000 114.839,162.000 115.376 C 162.000 115.913,162.180 116.464,162.400 116.600 C 162.620 116.736,162.800 117.197,162.800 117.624 C 162.800 118.051,162.980 118.400,163.200 118.400 C 163.420 118.400,163.600 118.760,163.600 119.200 C 163.600 119.640,163.780 120.000,164.000 120.000 C 164.220 120.000,164.400 120.450,164.400 121.000 C 164.400 121.550,164.580 122.000,164.800 122.000 C 165.020 122.000,165.200 122.360,165.200 122.800 C 165.200 123.240,165.380 123.600,165.600 123.600 C 165.820 123.600,166.000 123.870,166.000 124.200 C 166.000 124.728,162.090 124.800,133.208 124.800 C 97.256 124.800,97.911 124.758,96.810 127.121 C 96.533 127.714,96.148 128.513,95.953 128.895 C 95.759 129.277,95.600 132.202,95.600 135.395 L 95.600 141.200 92.200 141.200 L 88.800 141.200 88.800 120.000 L 88.800 98.800 100.618 98.800 L 112.436 98.800 113.418 97.818 C 113.958 97.278,114.400 96.558,114.400 96.218 C 114.400 95.878,114.580 95.600,114.800 95.600 C 115.061 95.600,115.200 88.867,115.200 76.200 C 115.200 63.533,115.061 56.800,114.800 56.800 C 114.580 56.800,114.400 56.522,114.400 56.182 C 114.400 55.842,113.958 55.122,113.418 54.582 L 112.436 53.600 83.605 53.600 L 54.773 53.600 53.387 54.987 L 52.000 56.373 52.000 76.200 L 52.000 96.027 53.387 97.413 L 54.773 98.800 66.587 98.800 L 78.400 98.800 78.400 123.500 L 78.401 148.200 79.347 149.300 C 79.867 149.905,80.587 150.400,80.947 150.400 C 81.306 150.400,81.600 150.580,81.600 150.800 C 81.600 151.051,84.200 151.200,88.600 151.200 L 95.600 151.200 95.600 172.600 L 95.600 194.000 88.824 194.000 C 84.737 194.000,81.949 194.159,81.800 194.400 C 81.664 194.620,81.269 194.800,80.923 194.800 C 80.577 194.800,79.867 195.295,79.347 195.900 L 78.401 197.000 78.400 238.500 L 78.400 280.000 58.100 280.000 L 37.800 280.001 36.800 280.905 C 34.723 282.782,34.800 281.485,34.800 314.595 C 34.800 334.998,34.937 345.600,35.200 345.600 C 35.420 345.600,35.600 345.883,35.600 346.229 C 35.600 347.027,36.560 348.000,37.348 348.000 C 37.681 348.000,38.064 348.180,38.200 348.400 C 38.542 348.953,128.400 348.953,128.400 348.400 C 128.400 348.180,128.678 348.000,129.018 348.000 C 129.818 348.000,131.600 346.218,131.600 345.418 C 131.600 345.078,131.780 344.800,132.000 344.800 C 132.263 344.800,132.400 334.408,132.400 314.424 C 132.400 294.604,132.261 283.961,132.000 283.800 C 131.780 283.664,131.600 283.191,131.600 282.748 C 131.600 281.786,130.703 280.800,129.829 280.800 C 129.483 280.800,129.200 280.620,129.200 280.400 C 129.200 280.139,122.200 280.000,109.000 280.000 L 88.800 280.000 88.800 242.600 L 88.800 205.200 92.200 205.200 L 95.600 205.200 95.600 210.200 C 95.600 213.267,95.755 215.200,96.000 215.200 C 96.220 215.200,96.400 215.674,96.400 216.253 C 96.400 216.907,96.818 217.666,97.500 218.253 L 98.600 219.199 146.700 219.200 L 194.800 219.200 194.800 249.600 L 194.800 280.000 174.795 280.000 C 154.439 280.000,154.100 280.022,152.515 281.471 C 152.232 281.731,152.000 282.226,152.000 282.571 C 152.000 282.917,151.820 283.200,151.600 283.200 C 151.337 283.200,151.210 293.747,151.229 314.100 C 151.261 347.261,151.226 346.678,153.213 347.602 C 153.536 347.753,154.203 348.084,154.695 348.338 C 155.873 348.947,244.800 349.008,244.800 348.400 C 244.800 348.180,245.115 347.994,245.500 347.987 C 246.452 347.970,247.578 347.064,248.246 345.777 C 248.936 344.447,249.087 283.200,248.400 283.200 C 248.180 283.200,248.000 282.917,248.000 282.571 C 248.000 282.226,247.768 281.731,247.485 281.471 C 245.900 280.022,245.561 280.000,225.205 280.000 L 205.200 280.000 205.200 249.600 L 205.200 219.200 253.300 219.200 L 301.400 219.199 302.500 218.253 C 303.182 217.666,303.600 216.907,303.600 216.253 C 303.600 215.674,303.780 215.200,304.000 215.200 C 304.245 215.200,304.400 213.267,304.400 210.200 L 304.400 205.200 307.800 205.200 L 311.200 205.200 311.200 242.600 L 311.200 280.000 291.000 280.000 C 277.800 280.000,270.800 280.139,270.800 280.400 C 270.800 280.620,270.517 280.800,270.171 280.800 C 269.297 280.800,268.400 281.786,268.400 282.748 C 268.400 283.191,268.220 283.664,268.000 283.800 C 267.739 283.961,267.600 294.604,267.600 314.424 C 267.600 334.408,267.737 344.800,268.000 344.800 C 268.220 344.800,268.400 345.078,268.400 345.418 C 268.400 346.218,270.182 348.000,270.982 348.000 C 271.322 348.000,271.600 348.180,271.600 348.400 C 271.600 348.953,361.458 348.953,361.800 348.400 C 361.936 348.180,362.319 348.000,362.652 348.000 C 363.440 348.000,364.400 347.027,364.400 346.229 C 364.400 345.883,364.580 345.600,364.800 345.600 C 365.063 345.600,365.200 334.998,365.200 314.595 C 365.200 281.485,365.277 282.782,363.200 280.905 L 362.200 280.001 341.900 280.000 L 321.600 280.000 321.600 238.500 L 321.599 197.000 320.653 195.900 C 320.133 195.295,319.423 194.800,319.077 194.800 C 318.731 194.800,318.336 194.620,318.200 194.400 C 318.051 194.159,315.263 194.000,311.176 194.000 L 304.400 194.000 304.400 172.600 L 304.400 151.200 311.400 151.200 C 315.800 151.200,318.400 151.051,318.400 150.800 C 318.400 150.580,318.694 150.400,319.053 150.400 C 319.413 150.400,320.133 149.905,320.653 149.300 L 321.599 148.200 321.600 123.500 L 321.600 98.800 333.413 98.800 L 345.227 98.800 346.613 97.413 L 348.000 96.027 348.000 76.200 L 348.000 56.373 346.613 54.987 L 345.227 53.600 316.395 53.600 L 287.564 53.600 286.582 54.582 C 286.042 55.122,285.600 55.842,285.600 56.182 C 285.600 56.522,285.420 56.800,285.200 56.800 C 284.939 56.800,284.800 63.533,284.800 76.200 C 284.800 88.867,284.939 95.600,285.200 95.600 C 285.420 95.600,285.600 95.878,285.600 96.218 C 285.600 96.558,286.042 97.278,286.582 97.818 L 287.564 98.800 299.382 98.800 L 311.200 98.800 311.200 120.000 L 311.200 141.200 307.800 141.200 L 304.400 141.200 304.400 135.395 C 304.400 132.202,304.241 129.277,304.047 128.895 C 303.852 128.513,303.467 127.714,303.190 127.121 C 302.089 124.758,302.744 124.800,266.792 124.800 C 237.910 124.800,234.000 124.728,234.000 124.200 C 234.000 123.870,234.180 123.600,234.400 123.600 C 234.620 123.600,234.800 123.251,234.800 122.824 C 234.800 122.397,234.980 121.936,235.200 121.800 C 235.420 121.664,235.600 121.203,235.600 120.776 C 235.600 120.349,235.780 120.000,236.000 120.000 C 236.220 120.000,236.400 119.640,236.400 119.200 C 236.400 118.760,236.580 118.400,236.800 118.400 C 237.020 118.400,237.200 118.051,237.200 117.624 C 237.200 117.197,237.380 116.736,237.600 116.600 C 237.820 116.464,238.000 115.928,238.000 115.410 C 238.000 114.891,238.140 114.407,238.312 114.333 C 238.793 114.128,241.600 105.310,241.600 104.004 C 241.600 103.368,241.780 102.736,242.000 102.600 C 242.220 102.464,242.400 101.373,242.400 100.176 C 242.400 98.979,242.580 98.000,242.800 98.000 C 243.039 98.000,243.200 96.467,243.200 94.200 C 243.200 91.933,243.039 90.400,242.800 90.400 C 242.571 90.400,242.400 89.200,242.400 87.600 C 242.400 86.000,242.229 84.800,242.000 84.800 C 241.780 84.800,241.600 84.266,241.600 83.614 C 241.600 81.575,238.312 73.200,237.512 73.200 C 237.340 73.200,237.200 72.840,237.200 72.400 C 237.200 71.960,237.020 71.600,236.800 71.600 C 236.580 71.600,236.400 71.357,236.400 71.059 C 236.400 70.762,235.860 69.954,235.200 69.263 C 234.540 68.572,234.000 67.838,234.000 67.631 C 234.000 67.155,227.727 60.800,227.257 60.800 C 227.065 60.800,226.299 60.263,225.554 59.606 C 224.809 58.950,223.975 58.410,223.700 58.406 C 223.425 58.403,223.200 58.220,223.200 58.000 C 223.200 57.780,222.840 57.600,222.400 57.600 C 221.960 57.600,221.600 57.420,221.600 57.200 C 221.600 56.980,221.330 56.800,221.000 56.800 C 220.670 56.800,220.400 56.620,220.400 56.400 C 220.400 56.180,219.950 56.000,219.400 56.000 C 218.850 56.000,218.400 55.820,218.400 55.600 C 218.400 55.380,218.040 55.200,217.600 55.200 C 217.160 55.200,216.800 55.020,216.800 54.800 C 216.800 54.580,216.451 54.400,216.024 54.400 C 215.597 54.400,215.136 54.220,215.000 54.000 C 214.864 53.780,214.324 53.600,213.800 53.600 C 213.276 53.600,212.736 53.420,212.600 53.200 C 212.464 52.980,211.733 52.800,210.976 52.800 C 210.219 52.800,209.600 52.620,209.600 52.400 C 209.600 52.169,208.333 52.000,206.600 52.000 C 204.867 52.000,203.600 51.831,203.600 51.600 C 203.600 51.363,202.133 51.200,200.000 51.200 C 197.867 51.200,196.400 51.363,196.400 51.600 M204.271 61.217 C 222.533 63.652,237.351 83.002,233.168 98.954 C 232.931 99.859,232.550 101.320,232.322 102.200 C 231.861 103.977,231.286 105.786,230.796 107.000 C 230.619 107.440,230.024 108.973,229.475 110.408 C 225.538 120.695,216.359 138.254,206.061 155.200 C 203.988 158.610,201.912 162.074,201.446 162.897 C 200.981 163.720,200.330 164.393,200.000 164.393 C 199.670 164.393,199.017 163.720,198.550 162.897 C 198.082 162.074,195.638 157.980,193.117 153.800 C 190.597 149.620,187.990 145.210,187.324 144.000 C 186.659 142.790,185.741 141.170,185.284 140.400 C 181.083 133.318,173.029 116.952,170.525 110.408 C 169.976 108.973,169.381 107.440,169.204 107.000 C 168.714 105.786,168.139 103.977,167.678 102.200 C 167.450 101.320,167.069 99.859,166.832 98.954 C 165.891 95.365,166.458 88.978,168.178 83.800 C 173.170 68.767,188.581 59.125,204.271 61.217 M105.400 76.200 L 105.400 89.800 83.845 89.904 C 68.260 89.978,62.139 89.882,61.745 89.555 C 61.162 89.071,60.898 63.235,61.470 62.663 C 61.619 62.515,71.564 62.440,83.570 62.497 L 105.400 62.600 105.400 76.200 M338.557 63.033 C 339.104 64.457,338.823 89.083,338.255 89.555 C 337.861 89.882,331.740 89.978,316.155 89.904 L 294.600 89.800 294.494 76.603 C 294.436 69.345,294.476 63.180,294.582 62.903 C 294.908 62.053,338.230 62.181,338.557 63.033 M193.200 69.762 C 168.894 78.319,174.355 113.338,200.000 113.370 C 225.723 113.402,230.985 77.632,206.434 69.636 C 202.768 68.442,196.788 68.499,193.200 69.762 M203.481 77.651 C 208.412 79.636,211.035 81.873,212.708 85.521 C 215.612 91.852,212.659 100.381,206.538 103.344 C 205.692 103.754,204.687 104.249,204.305 104.444 C 202.646 105.294,196.462 104.855,194.151 103.723 C 185.513 99.494,183.423 88.124,190.070 81.521 C 191.615 79.986,193.188 79.030,196.400 77.676 C 197.747 77.108,202.095 77.092,203.481 77.651 M173.911 137.200 C 177.615 144.090,177.560 143.990,182.103 151.826 C 183.754 154.672,186.050 158.530,187.205 160.400 C 188.361 162.270,189.620 164.340,190.002 165.000 C 197.576 178.071,200.393 179.915,204.180 174.282 C 204.741 173.447,205.200 172.674,205.200 172.564 C 205.200 172.454,206.091 171.043,207.180 169.429 C 208.269 167.815,209.509 165.888,209.934 165.147 C 210.360 164.406,212.017 161.640,213.618 159.000 C 218.417 151.085,222.864 143.323,226.109 137.200 L 227.487 134.600 261.043 134.600 L 294.600 134.600 294.702 171.957 C 294.776 199.072,294.681 209.461,294.356 209.853 C 293.758 210.574,106.604 210.668,105.736 209.947 C 105.161 209.469,104.897 135.236,105.469 134.664 C 105.617 134.516,120.762 134.441,139.126 134.498 L 172.513 134.600 173.911 137.200 M122.703 314.302 L 122.806 339.204 83.503 339.102 L 44.200 339.000 44.090 315.000 C 44.029 301.800,44.077 290.594,44.198 290.098 L 44.416 289.196 83.508 289.298 L 122.600 289.400 122.703 314.302 M239.103 314.300 L 239.206 339.200 200.003 339.200 L 160.800 339.200 160.800 314.467 C 160.800 300.863,160.921 289.612,161.069 289.465 C 161.216 289.317,178.811 289.242,200.169 289.298 L 239.000 289.400 239.103 314.300 M355.803 290.100 C 355.923 290.595,355.971 301.800,355.910 315.000 L 355.800 339.000 316.500 339.102 L 277.200 339.204 277.200 314.469 C 277.200 300.864,277.320 289.613,277.467 289.467 C 277.613 289.320,295.250 289.200,316.659 289.200 L 355.585 289.200 355.803 290.100 " stroke="none" fill="#040404" fill-rule="evenodd"></path><path id="path2" d="M62.000 76.200 L 62.000 88.800 83.600 88.800 L 105.200 88.800 105.200 76.200 L 105.200 63.600 83.600 63.600 L 62.000 63.600 62.000 76.200 M294.800 76.200 L 294.800 88.800 316.400 88.800 L 338.000 88.800 338.000 76.200 L 338.000 63.600 316.400 63.600 L 294.800 63.600 294.800 76.200 M44.800 314.210 L 44.800 338.800 83.600 338.800 L 122.400 338.800 122.400 314.443 C 122.400 293.071,122.326 290.057,121.795 289.853 C 121.462 289.726,104.002 289.621,82.995 289.621 L 44.800 289.620 44.800 314.210 M161.200 314.209 L 161.200 338.800 200.000 338.800 L 238.800 338.800 238.800 314.209 L 238.800 289.618 200.000 289.618 L 161.200 289.618 161.200 314.209 M278.100 289.870 C 277.708 290.024,277.600 295.311,277.600 314.433 L 277.600 338.800 316.400 338.800 L 355.200 338.800 355.200 314.210 L 355.200 289.620 316.900 289.647 C 295.835 289.662,278.375 289.762,278.100 289.870 " stroke="none" fill="#64b4f4" fill-rule="evenodd"></path><path id="path3" d="M61.782 63.704 C 61.675 63.981,61.636 69.786,61.694 76.604 L 61.800 89.000 83.500 89.005 L 105.200 89.010 83.600 88.902 L 62.000 88.793 62.000 76.200 L 62.000 63.607 83.700 63.500 L 105.400 63.393 83.687 63.296 C 66.526 63.220,61.934 63.306,61.782 63.704 M316.300 63.498 L 338.000 63.607 338.000 76.200 L 338.000 88.793 316.400 88.902 L 294.800 89.010 316.500 89.005 L 338.200 89.000 338.200 76.200 L 338.200 63.400 316.400 63.395 L 294.600 63.389 316.300 63.498 M195.600 78.513 C 192.795 79.427,189.174 82.540,188.053 85.000 C 187.753 85.660,187.333 86.536,187.121 86.947 C 186.611 87.932,186.603 94.460,187.110 95.436 C 187.328 95.856,187.751 96.719,188.049 97.352 C 192.882 107.623,209.003 106.415,212.737 95.504 C 213.327 93.779,213.413 87.992,212.864 86.923 C 212.660 86.525,212.247 85.660,211.947 85.000 C 209.363 79.328,202.027 76.416,195.600 78.513 M105.867 134.667 C 105.219 135.314,105.571 209.503,106.223 209.753 C 107.168 210.116,293.326 210.030,293.902 209.667 C 294.300 209.416,294.383 201.612,294.302 171.975 L 294.200 134.600 261.400 134.505 C 243.360 134.452,228.400 134.542,228.155 134.705 C 227.910 134.867,226.992 136.350,226.115 138.000 C 225.238 139.650,224.103 141.720,223.593 142.600 C 223.082 143.480,222.289 144.920,221.829 145.800 C 220.445 148.452,211.191 163.978,208.601 167.994 C 207.677 169.427,206.149 171.820,205.206 173.312 C 202.591 177.446,200.263 178.577,197.752 176.932 C 196.855 176.344,192.800 170.828,192.800 170.196 C 192.800 170.064,192.107 168.931,191.261 167.678 C 189.252 164.704,185.954 159.280,181.488 151.600 C 177.844 145.336,177.092 143.990,174.000 138.200 C 173.060 136.440,172.090 134.868,171.845 134.706 C 171.290 134.339,106.233 134.301,105.867 134.667 " stroke="none" fill="#a5d28d" fill-rule="evenodd"></path><path id="path4" d="M61.470 62.663 C 60.898 63.235,61.162 89.071,61.745 89.555 C 62.139 89.882,68.260 89.978,83.845 89.904 L 105.400 89.800 105.400 76.200 L 105.400 62.600 83.570 62.497 C 71.564 62.440,61.619 62.515,61.470 62.663 M294.582 62.903 C 294.476 63.180,294.436 69.345,294.494 76.603 L 294.600 89.800 316.155 89.904 C 331.740 89.978,337.861 89.882,338.255 89.555 C 338.823 89.083,339.104 64.457,338.557 63.033 C 338.230 62.181,294.908 62.053,294.582 62.903 M105.200 76.203 L 105.200 89.207 83.500 89.103 L 61.800 89.000 61.694 76.604 C 61.636 69.786,61.675 63.981,61.782 63.704 C 61.934 63.307,66.577 63.200,83.587 63.200 L 105.200 63.200 105.200 76.203 M338.200 76.200 L 338.200 89.000 316.500 89.103 L 294.800 89.207 294.800 76.200 L 294.800 63.193 316.500 63.297 L 338.200 63.400 338.200 76.200 M196.119 77.762 C 194.024 78.525,194.106 78.851,196.232 78.206 C 197.314 77.877,199.010 77.609,200.000 77.609 C 200.990 77.609,202.686 77.877,203.768 78.206 C 206.011 78.886,205.952 78.519,203.693 77.732 C 201.891 77.104,197.882 77.120,196.119 77.762 M191.765 79.995 C 183.335 85.971,184.652 99.072,194.151 103.723 C 196.345 104.798,203.604 105.362,204.139 104.500 C 204.241 104.335,202.618 104.263,200.531 104.340 C 186.416 104.859,181.266 87.406,193.189 79.459 C 193.733 79.097,194.003 78.808,193.789 78.818 C 193.575 78.828,192.664 79.357,191.765 79.995 M207.869 80.261 C 208.931 81.065,209.939 81.956,210.109 82.242 C 210.279 82.527,210.646 82.994,210.925 83.280 C 215.767 88.238,213.429 98.929,206.653 102.815 C 205.524 103.463,204.829 103.994,205.108 103.996 C 205.914 104.002,208.704 102.104,210.164 100.556 C 215.792 94.589,214.814 84.551,208.159 79.972 C 205.756 78.318,205.561 78.514,207.869 80.261 M105.467 134.667 C 104.896 135.237,105.162 209.471,105.736 209.947 C 106.127 210.271,131.765 210.392,200.000 210.392 C 268.235 210.392,293.873 210.271,294.264 209.947 C 294.859 209.453,295.093 135.028,294.500 134.662 C 294.335 134.560,294.247 151.322,294.304 171.912 C 294.387 201.678,294.305 209.413,293.904 209.666 C 293.245 210.081,106.755 210.081,106.096 209.666 C 105.695 209.413,105.613 201.671,105.696 171.874 C 105.753 151.263,105.785 134.400,105.767 134.400 C 105.748 134.400,105.613 134.520,105.467 134.667 M171.845 134.670 C 172.090 134.851,173.060 136.440,174.000 138.200 C 177.092 143.990,177.844 145.336,181.488 151.600 C 185.954 159.280,189.252 164.704,191.261 167.678 C 192.107 168.931,192.800 170.064,192.800 170.196 C 192.800 170.828,196.855 176.344,197.752 176.932 C 200.263 178.577,202.591 177.446,205.206 173.312 C 206.149 171.820,207.677 169.427,208.601 167.994 C 212.368 162.152,217.381 153.600,217.039 153.600 C 216.877 153.600,213.074 159.784,210.075 164.924 C 209.567 165.796,208.262 167.826,207.175 169.436 C 206.089 171.047,205.200 172.454,205.200 172.564 C 205.200 173.020,203.095 175.851,202.280 176.491 C 199.297 178.835,196.505 176.222,190.002 165.000 C 189.620 164.340,188.361 162.270,187.205 160.400 C 186.050 158.530,183.754 154.672,182.103 151.826 C 177.562 143.995,177.621 144.100,173.923 137.223 C 173.161 135.806,172.282 134.577,171.969 134.493 C 171.591 134.391,171.550 134.450,171.845 134.670 M227.442 134.732 C 227.330 134.914,226.578 136.309,225.772 137.832 C 224.966 139.354,223.878 141.365,223.353 142.300 C 222.829 143.235,221.921 144.855,221.336 145.900 C 220.751 146.945,219.879 148.430,219.397 149.200 C 218.189 151.129,217.140 153.200,217.371 153.200 C 217.578 153.200,219.877 149.394,221.599 146.200 C 222.191 145.100,223.091 143.480,223.598 142.600 C 224.106 141.720,225.238 139.650,226.115 138.000 C 226.992 136.350,227.910 134.868,228.155 134.706 C 228.473 134.496,228.464 134.411,228.124 134.406 C 227.862 134.403,227.555 134.549,227.442 134.732 M44.198 290.098 C 44.077 290.594,44.029 301.800,44.090 315.000 L 44.200 339.000 83.503 339.102 L 122.806 339.204 122.703 314.302 L 122.600 289.400 83.508 289.298 L 44.416 289.196 44.198 290.098 M161.069 289.465 C 160.921 289.612,160.800 300.863,160.800 314.467 L 160.800 339.200 200.003 339.200 L 239.206 339.200 239.103 314.300 L 239.000 289.400 200.169 289.298 C 178.811 289.242,161.216 289.317,161.069 289.465 M277.467 289.467 C 277.320 289.613,277.200 300.864,277.200 314.469 L 277.200 339.204 316.500 339.102 L 355.800 339.000 355.910 315.000 C 355.971 301.800,355.923 290.595,355.803 290.100 L 355.585 289.200 316.659 289.200 C 295.250 289.200,277.613 289.320,277.467 289.467 M121.795 289.853 C 122.326 290.057,122.400 293.071,122.400 314.443 L 122.400 338.800 83.600 338.800 L 44.800 338.800 44.800 314.210 L 44.800 289.620 82.995 289.621 C 104.002 289.621,121.462 289.726,121.795 289.853 M238.800 314.209 L 238.800 338.800 200.000 338.800 L 161.200 338.800 161.200 314.209 L 161.200 289.618 200.000 289.618 L 238.800 289.618 238.800 314.209 M355.200 314.210 L 355.200 338.800 316.400 338.800 L 277.600 338.800 277.600 314.433 C 277.600 295.311,277.708 290.024,278.100 289.870 C 278.375 289.762,295.835 289.662,316.900 289.647 L 355.200 289.620 355.200 314.210 " stroke="none" fill="#335264" fill-rule="evenodd"></path></g></svg>
